<?xml version="1.0" standalone="no"?>
<!DOCTYPE svg PUBLIC "-//W3C//DTD SVG 20010904//EN"
 "http://www.w3.org/TR/2001/REC-SVG-20010904/DTD/svg10.dtd">
<svg version="1.0" xmlns="http://www.w3.org/2000/svg"
 width="512.000000pt" height="512.000000pt" viewBox="0 0 512.000000 512.000000"
 preserveAspectRatio="xMidYMid meet">
<metadata>
Created by potrace 1.14, written by Peter Selinger 2001-2017
</metadata>
<g transform="translate(0.000000,512.000000) scale(0.100000,-0.100000)"
fill="#000000" stroke="none">
<path d="M0 2560 l0 -2560 1280 0 1280 0 0 2560 0 2560 -1280 0 -1280 0 0
-2560z m1595 955 c130 -18 221 -47 322 -100 83 -44 179 -112 220 -156 l22 -24
-131 -152 -131 -152 -62 49 c-80 63 -194 125 -270 144 -67 18 -218 21 -285 5
-143 -33 -287 -151 -354 -291 -147 -306 -32 -691 248 -828 141 -70 319 -76
465 -17 59 24 166 92 234 149 l38 32 132 -132 132 -132 -55 -56 c-122 -123
-279 -214 -441 -255 -120 -30 -344 -37 -462 -15 -371 70 -659 332 -757 687
-114 417 47 862 395 1094 126 84 251 129 435 158 59 10 212 6 305 -8z"/>
<path d="M3150 2550 l0 -950 215 0 215 0 0 284 0 284 253 4 c240 4 256 6 342
32 134 41 218 89 306 176 124 122 178 262 179 461 0 341 -209 583 -556 644
-68 12 -179 15 -520 15 l-434 0 0 -950z m897 545 c29 -10 72 -34 94 -53 143
-123 110 -375 -60 -462 -53 -26 -169 -40 -347 -40 l-154 0 0 291 0 292 208 -6
c161 -4 219 -9 259 -22z"/>
</g>
</svg>
